<svg width="148" height="93" viewBox="0 0 148 93" fill="none" xmlns="http://www.w3.org/2000/svg">
<path fill-rule="evenodd" clip-rule="evenodd" d="M78.723 76.1111L57.707 13.5521C57.3413 12.473 56.6299 11.5423 55.6811 10.9022C54.7322 10.262 53.5984 9.94775 52.453 10.0071H27.5489C26.4474 10.0043 25.3727 10.3449 24.4771 10.9811C23.5814 11.6172 22.91 12.5166 22.5575 13.5521L1.27887 76.1111C1.00294 76.9176 0.930294 77.7789 1.06754 78.6198C1.20479 79.4612 1.54772 80.2557 2.06614 80.935C2.58456 81.6137 3.26286 82.1564 4.0415 82.5151C4.8202 82.8738 5.67555 83.038 6.5329 82.9926H21.9271C23.0195 82.9848 24.0822 82.6386 24.9674 82.0031C25.8526 81.3682 26.5163 80.4746 26.8658 79.4476L30.0707 70.168L45.8327 82.0021C46.7486 82.6605 47.8544 83.0077 48.9853 82.9926H73.5741C74.4226 83.0203 75.2653 82.843 76.0298 82.477C76.7948 82.1105 77.4584 81.5663 77.9648 80.8896C78.4708 80.2134 78.8039 79.4252 78.9358 78.5932C79.0682 77.7606 78.9952 76.9093 78.723 76.1111ZM49.1953 79.5519C48.8135 79.5519 48.4428 79.4236 48.1445 79.187L18.4595 57.3434L17.9866 56.9785H33.7486L34.1689 55.8836L39.4229 42.6941L51.192 77.2581C51.2866 77.5479 51.304 77.857 51.243 78.1552C51.1821 78.454 51.0449 78.7318 50.8442 78.9628C50.6435 79.1932 50.3866 79.3684 50.0977 79.4716C49.8089 79.5748 49.4981 79.6024 49.1953 79.5519ZM73.7312 79.5519H54.1868C54.5793 78.4378 54.5793 77.2247 54.1868 76.1111L32.908 13.5521H52.453C52.8239 13.5539 53.1849 13.6704 53.4865 13.8852C53.7875 14.1001 54.014 14.4028 54.1343 14.7512L75.413 77.3102C75.4844 77.5698 75.496 77.8425 75.4456 78.1073C75.3956 78.3721 75.2853 78.6218 75.1235 78.8382C74.9611 79.054 74.752 79.2307 74.5109 79.3543C74.2697 79.4779 74.0028 79.5456 73.7312 79.5519Z" fill="black"/>
<path d="M142.468 39.8723C143.25 37.4143 143.52 34.8104 143.261 32.2346C143.002 29.6587 142.219 27.1702 140.965 24.9354C139.105 21.5574 136.266 18.883 132.856 17.2976C129.446 15.7123 125.641 15.2981 121.991 16.1146C119.917 13.7073 117.273 11.9118 114.324 10.9085C111.375 9.90519 108.225 9.72934 105.19 10.3986C102.155 11.0679 99.3427 12.5588 97.0347 14.7214C94.7268 16.8841 93.0047 19.6425 92.0416 22.7195C89.6098 23.2399 87.3125 24.296 85.3032 25.8171C83.2938 27.3383 81.6187 29.2895 80.3899 31.5403C78.51 34.9127 77.7066 38.8216 78.0957 42.7018C78.4849 46.5821 80.0464 50.2327 82.5545 53.1258C81.7695 55.5826 81.4963 58.1861 81.7532 60.762C82.01 63.3379 82.791 65.8269 84.0439 68.0624C85.9059 71.4417 88.7478 74.1167 92.1602 75.702C95.5726 77.2873 99.3792 77.701 103.031 76.8835C104.679 78.8197 106.703 80.3668 108.969 81.4215C111.235 82.4762 113.691 83.0143 116.172 82.9997C119.913 83.0033 123.559 81.7661 126.583 79.4668C129.606 77.1674 131.852 73.9249 132.995 70.2071C135.426 69.6858 137.723 68.6294 139.732 67.1082C141.742 65.5871 143.417 63.6363 144.646 61.386C146.504 58.0186 147.294 54.1244 146.902 50.2604C146.511 46.3964 144.959 42.7601 142.468 39.8723ZM116.172 78.2219C113.108 78.2269 110.14 77.1062 107.789 75.0561L108.202 74.8116L122.129 66.4221C122.476 66.2099 122.763 65.9073 122.964 65.544C123.165 65.1807 123.271 64.7691 123.274 64.3498V43.8584L129.161 47.4129C129.19 47.4283 129.215 47.4507 129.235 47.4781C129.254 47.5056 129.267 47.5375 129.272 47.5711V64.5514C129.264 68.1747 127.882 71.6474 125.427 74.2095C122.972 76.7715 119.644 78.2142 116.172 78.2219ZM88.015 65.6738C86.4784 62.9048 85.9266 59.6589 86.4569 56.5072L86.8708 56.7663L100.811 65.1558C101.156 65.3671 101.549 65.4784 101.949 65.4784C102.349 65.4784 102.742 65.3671 103.086 65.1558L120.116 54.91V62.0044C120.114 62.0411 120.105 62.0771 120.088 62.1094C120.071 62.1418 120.048 62.1699 120.019 62.1914L105.913 70.6816C102.903 72.4914 99.327 72.9806 95.9713 72.0417C92.6157 71.1028 89.7541 68.8125 88.015 65.6738ZM84.3473 34.0156C85.8946 31.2288 88.3369 29.1031 91.2418 28.0151V45.2832C91.2365 45.7003 91.3387 46.1113 91.5376 46.4733C91.7364 46.8352 92.0247 47.1348 92.3724 47.3408L109.319 57.5435L103.431 61.0976C103.399 61.1153 103.364 61.1245 103.328 61.1245C103.292 61.1245 103.256 61.1153 103.224 61.0976L89.1459 52.6221C86.1411 50.8044 83.949 47.8182 83.0496 44.3174C82.1502 40.8165 82.6168 37.0864 84.3473 33.9439V34.0156ZM132.719 45.7437L115.717 35.4404L121.591 31.8999C121.623 31.8822 121.659 31.873 121.695 31.873C121.731 31.873 121.766 31.8822 121.798 31.8999L135.877 40.39C138.029 41.6863 139.784 43.5948 140.936 45.8927C142.088 48.1907 142.59 50.7833 142.384 53.3679C142.177 55.9525 141.27 58.4223 139.769 60.4891C138.267 62.556 136.234 64.1344 133.905 65.0402V47.7721C133.893 47.3557 133.777 46.9497 133.569 46.594C133.361 46.2383 133.068 45.9455 132.719 45.7437ZM138.579 36.5484L138.165 36.2893L124.253 27.828C123.906 27.6155 123.51 27.5034 123.108 27.5034C122.706 27.5034 122.311 27.6155 121.963 27.828L104.948 38.0735V30.9795C104.945 30.9434 104.95 30.907 104.965 30.874C104.98 30.8411 105.002 30.8129 105.031 30.7924L119.109 22.3165C121.267 21.0193 123.734 20.39 126.222 20.5023C128.71 20.6146 131.116 21.4638 133.158 22.9506C135.2 24.4374 136.795 26.5004 137.755 28.8981C138.715 31.2959 139.001 33.9294 138.58 36.4906L138.579 36.5484ZM101.735 49.1248L95.8474 45.5849C95.818 45.5664 95.7928 45.5413 95.7737 45.5115C95.7545 45.4817 95.7419 45.4479 95.7367 45.4124V28.4756C95.7399 25.8773 96.4519 23.3337 97.7893 21.1421C99.1267 18.9506 101.034 17.2016 103.289 16.0998C105.544 14.9979 108.053 14.5888 110.522 14.92C112.991 15.2513 115.32 16.3094 117.234 17.9706L116.82 18.2154L102.893 26.6043C102.547 26.8165 102.259 27.1191 102.058 27.4824C101.858 27.8457 101.751 28.2573 101.749 28.6766L101.735 49.1248ZM104.934 41.93L112.518 37.3682L120.116 41.93V51.0532L112.545 55.6148L104.948 51.0532L104.934 41.93Z" fill="black"/>
</svg>
