<svg width="124" height="122" viewBox="0 0 124 122" fill="none" xmlns="http://www.w3.org/2000/svg">
<path d="M103.18 58.8097C103.18 36.1426 84.743 17.7673 62.0001 17.7673C39.2571 17.7673 20.8202 36.1426 20.8202 58.8097C20.8202 81.4768 39.2571 99.8522 62.0001 99.8522C84.743 99.8522 103.18 81.4768 103.18 58.8097ZM16.0801 58.8097C16.0801 33.5334 36.6392 13.043 62.0001 13.043C87.3609 13.043 107.92 33.5334 107.92 58.8097C107.92 84.086 87.3609 104.576 62.0001 104.576C36.6392 104.576 16.0801 84.086 16.0801 58.8097Z" fill="black"/>
<path d="M51.2929 99.7869C54.5612 95.0572 54.3296 91.5078 49.8451 87.0852C45.3607 82.6637 42.7504 76.195 42.7504 76.195C42.7504 76.195 41.7753 72.438 39.5544 72.7837C37.3336 73.1294 35.7029 78.7438 40.3549 82.1785C45.0067 85.6121 39.4285 87.9452 37.6387 84.7203C35.8489 81.4952 30.9619 73.2044 28.4276 71.6188C25.8943 70.0332 24.1105 70.9216 24.7079 74.1898C25.3053 77.4583 35.9 85.3801 34.8692 87.0944C33.8383 88.8078 30.2055 85.08 30.2055 85.08C30.2055 85.08 18.8375 74.872 16.3624 77.532C13.8874 80.1922 18.2401 82.4211 24.443 86.1265C30.6472 89.8307 31.1281 90.8092 30.2481 92.2108C29.3668 93.6122 15.6736 82.2208 14.3874 87.0499C13.1024 91.879 28.3622 93.2807 27.4204 96.6145C26.4786 99.9497 16.6712 90.3042 14.6653 94.0624C12.6582 97.8216 28.5047 102.238 28.633 102.271C33.7516 103.581 46.7515 106.358 51.2929 99.7869Z" fill="white"/>
<path d="M26.3831 66.2783C24.4749 66.2783 22.7693 67.0593 21.58 68.476C20.8445 69.3534 20.076 70.7676 20.0135 72.8854C19.2132 72.6562 18.4435 72.5282 17.7246 72.5282C15.8976 72.5282 14.2474 73.2259 13.0805 74.4934C11.5813 76.1201 10.9153 78.1193 11.2053 80.1195C11.3432 81.0722 11.6626 81.9262 12.14 82.7166C11.1334 83.5282 10.392 84.6582 10.0336 86.0172C9.75313 87.0826 9.46554 89.3014 10.9672 91.5872C10.8717 91.7363 10.7821 91.8913 10.6984 92.0499C9.79556 93.7577 9.73781 95.6874 10.5346 97.4846C11.7427 100.208 14.7448 102.354 20.5746 104.658C24.2014 106.091 27.5194 107.007 27.5489 107.015C32.3437 108.254 36.6801 108.884 40.4341 108.884C47.3342 108.884 52.2741 106.778 55.1171 102.625C59.6927 95.9365 59.0384 89.8194 53.1181 83.9228C49.8412 80.66 47.663 75.8488 47.2092 74.7928C46.2946 71.6661 43.8759 68.1905 39.8555 68.1905H39.8544C39.5159 68.1905 39.1741 68.2175 38.8372 68.2705C37.0761 68.5463 35.5368 69.5567 34.4372 71.0765C33.2502 69.6059 32.0975 68.436 31.0543 67.7759C29.4818 66.7821 27.9107 66.2783 26.3831 66.2783ZM26.3831 70.9767C26.9843 70.9767 27.7186 71.2315 28.5283 71.7436C31.0425 73.3328 35.8938 81.6431 37.6702 84.8755C38.2653 85.9584 39.2827 86.4166 40.1985 86.4166C42.016 86.4166 43.435 84.616 40.3647 82.3278C35.7478 78.885 37.3673 73.2578 39.5715 72.9112C39.668 72.8959 39.7634 72.8889 39.8555 72.8889C41.8592 72.8889 42.7433 76.3304 42.7433 76.3304C42.7433 76.3304 45.3339 82.8141 49.7848 87.2459C54.2354 91.6786 54.4652 95.2364 51.2215 99.977C49.009 103.21 44.7741 103.631 40.4341 103.631C35.9328 103.631 31.3104 102.84 28.7243 102.172C28.597 102.139 12.8778 98.0073 14.8698 94.2393C15.2045 93.6061 15.7562 93.3525 16.4504 93.3525C19.2557 93.3525 24.3582 97.5129 26.5517 97.5129C27.042 97.5129 27.4074 97.1349 27.5489 96.6275C28.5249 93.1256 13.3175 92.051 14.594 87.2106C14.8191 86.3544 15.4297 86.0067 16.2878 86.0078C19.9947 86.0078 28.3115 92.5043 30.0548 92.5043C30.1879 92.5043 30.2833 92.4657 30.3353 92.3834C31.2087 90.9787 30.8064 89.8349 24.6502 86.1221C18.4939 82.408 14.0966 80.337 16.5541 77.6707C16.837 77.3627 17.2378 77.2266 17.7246 77.2266C21.4622 77.2277 30.2927 85.236 30.2927 85.236C30.2927 85.236 32.6761 87.7061 34.1177 87.7061C34.4488 87.7061 34.7306 87.5759 34.9215 87.254C35.9433 85.5367 25.4296 77.5966 24.8367 74.3207C24.4348 72.1007 25.1184 70.9767 26.3831 70.9767Z" fill="black"/>
<path d="M72.5047 99.7869C69.2365 95.0572 69.4679 91.5078 73.9524 87.0852C78.4369 82.6637 81.0474 76.195 81.0474 76.195C81.0474 76.195 82.0225 72.438 84.2432 72.7837C86.4642 73.1294 88.0947 78.7438 83.4428 82.1785C78.7908 85.6121 84.3691 87.9452 86.1588 84.7203C87.9486 81.4952 92.8356 73.2044 95.3702 71.6188C97.9034 70.0332 99.6871 70.9216 99.0897 74.1898C98.4923 77.4583 87.8975 85.3801 88.9284 87.0944C89.9592 88.8078 93.5923 85.08 93.5923 85.08C93.5923 85.08 104.96 74.872 107.435 77.532C109.91 80.1922 105.557 82.4211 99.3547 86.1265C93.1503 89.8307 92.6694 90.8092 93.5495 92.2108C94.4307 93.6122 108.124 82.2208 109.41 87.0499C110.695 91.879 95.4354 93.2807 96.3773 96.6145C97.319 99.9497 107.126 90.3042 109.132 94.0624C111.139 97.8216 95.2929 102.238 95.1645 102.271C90.0459 103.581 77.0463 106.358 72.5047 99.7869Z" fill="white"/>
<path d="M97.4149 66.2783C99.3232 66.2783 101.029 67.0593 102.218 68.476C102.954 69.3534 103.722 70.7676 103.785 72.8854C104.585 72.6562 105.354 72.5282 106.073 72.5282C107.9 72.5282 109.551 73.2259 110.717 74.4934C112.217 76.1201 112.883 78.1193 112.593 80.1195C112.455 81.0722 112.136 81.9262 111.658 82.7166C112.665 83.5282 113.406 84.6582 113.764 86.0172C114.045 87.0826 114.333 89.3014 112.831 91.5872C112.926 91.7363 113.016 91.8913 113.1 92.0499C114.003 93.7577 114.06 95.6874 113.263 97.4846C112.055 100.208 109.053 102.354 103.223 104.658C99.5967 106.091 96.2786 107.007 96.2492 107.015C91.4543 108.254 87.1179 108.884 83.3639 108.884C76.4638 108.884 71.5239 106.778 68.6811 102.625C64.1055 95.9365 64.7595 89.8194 70.6801 83.9228C73.9567 80.66 76.1349 75.8488 76.5888 74.7928C77.5033 71.6661 79.9221 68.1905 83.9427 68.1905H83.9438C84.282 68.1905 84.6239 68.2175 84.961 68.2705C86.7218 68.5463 88.2612 69.5567 89.361 71.0765C90.548 69.6059 91.7007 68.436 92.7439 67.7759C94.3161 66.7821 95.8872 66.2783 97.4149 66.2783ZM97.4149 70.9767C96.8137 70.9767 96.0794 71.2315 95.2697 71.7436C92.7555 73.3328 87.9041 81.6431 86.1278 84.8755C85.5326 85.9584 84.5154 86.4166 83.5995 86.4166C81.782 86.4166 80.3629 84.616 83.4333 82.3278C88.0504 78.885 86.4309 73.2578 84.2267 72.9112C84.1299 72.8959 84.0345 72.8889 83.9427 72.8889C81.9388 72.8889 81.0549 76.3304 81.0549 76.3304C81.0549 76.3304 78.4641 82.8141 74.0134 87.2459C69.5625 91.6786 69.3327 95.2364 72.5765 99.977C74.7889 103.21 79.0239 103.631 83.3639 103.631C87.8651 103.631 92.4876 102.84 95.0737 102.172C95.2009 102.139 110.92 98.0073 108.928 94.2393C108.593 93.6061 108.042 93.3525 107.348 93.3525C104.542 93.3525 99.4399 97.5129 97.2462 97.5129C96.7559 97.5129 96.3906 97.1349 96.2492 96.6275C95.273 93.1256 110.481 92.051 109.204 87.2106C108.979 86.3544 108.368 86.0067 107.51 86.0078C103.803 86.0078 95.4865 92.5043 93.7433 92.5043C93.6101 92.5043 93.5146 92.4657 93.4627 92.3834C92.5893 90.9787 92.9916 89.8349 99.1478 86.1221C105.304 82.408 109.702 80.337 107.244 77.6707C106.961 77.3627 106.56 77.2266 106.073 77.2266C102.336 77.2277 93.5052 85.236 93.5052 85.236C93.5052 85.236 91.1219 87.7061 89.6804 87.7061C89.3491 87.7061 89.0676 87.5759 88.8765 87.254C87.8546 85.5367 98.3685 77.5966 98.9614 74.3207C99.3633 72.1007 98.6796 70.9767 97.4149 70.9767Z" fill="black"/>
<path d="M77.5176 60.4163C77.5176 55.1006 70.6426 63.2023 62.1423 63.2384C53.6426 63.2027 46.7676 55.1011 46.7676 60.4163C46.7676 63.9406 48.4491 69.6725 52.9654 73.1501C53.8641 70.0494 58.8022 67.5656 59.508 67.9223C60.5131 68.4301 60.4567 69.8376 62.1423 71.0777C63.8281 69.8376 63.7716 68.4306 64.7767 67.9223C65.483 67.5656 70.4206 70.0494 71.3191 73.1501C75.8354 69.6725 77.5172 63.9406 77.5172 60.4167L77.5176 60.4163Z" fill="#0E1116"/>
<path d="M64.7779 67.9219C63.7728 68.4297 63.8292 69.8372 62.1434 71.0774C60.4578 69.8372 60.5143 68.4302 59.5092 67.9219C58.8029 67.5652 53.8653 70.049 52.9668 73.1497C55.2503 74.9081 58.2588 76.0898 62.1407 76.1185C62.1416 76.1185 62.1425 76.1185 62.1439 76.1185C62.145 76.1185 62.1459 76.1185 62.1472 76.1185C66.0291 76.0902 69.0377 74.9081 71.3211 73.1497C70.4227 70.049 65.4846 67.5652 64.7788 67.9219H64.7779Z" fill="black"/>
<path d="M89.5521 53.0258C91.6553 53.0258 93.3601 51.3162 93.3601 49.2072C93.3601 47.0983 91.6553 45.3887 89.5521 45.3887C87.449 45.3887 85.7441 47.0983 85.7441 49.2072C85.7441 51.3162 87.449 53.0258 89.5521 53.0258Z" fill="#BEBEBE"/>
<path d="M34.6713 53.0258C36.7744 53.0258 38.4793 51.3162 38.4793 49.2072C38.4793 47.0983 36.7744 45.3887 34.6713 45.3887C32.5681 45.3887 30.8633 47.0983 30.8633 49.2072C30.8633 51.3162 32.5681 53.0258 34.6713 53.0258Z" fill="#BEBEBE"/>
<path d="M76.1252 47.5443C77.634 48.0771 78.2343 51.1794 79.7587 50.3689C82.6451 48.8339 83.7412 45.2489 82.2063 42.3618C80.6715 39.4748 77.087 38.3789 74.2003 39.9139C71.3136 41.449 70.2178 45.0337 71.7527 47.9208C72.4771 49.2836 74.7765 47.0679 76.1252 47.5443Z" fill="#0E1116"/>
<path d="M48.236 47.5443C46.7271 48.0771 46.1268 51.1794 44.6027 50.3689C41.716 48.8339 40.6202 45.2489 42.155 42.3618C43.6899 39.4748 47.2741 38.3789 50.1608 39.9139C53.0475 41.449 54.1433 45.0337 52.6084 47.9208C51.884 49.2836 49.5847 47.0679 48.236 47.5443Z" fill="#0E1116"/>
</svg>
