<svg width="130" height="130" viewBox="0 0 130 130" fill="none" xmlns="http://www.w3.org/2000/svg">
<path d="M17 47.6853C17 53.1082 21.3961 57.5043 26.8191 57.5043C32.242 57.5043 36.6381 53.1082 36.6381 47.6853C36.6381 42.2624 32.242 37.8663 26.8191 37.8663C21.3961 37.8663 17 42.2624 17 47.6853Z" fill="black"/>
<path d="M17 96.7803C17 102.203 21.3961 106.599 26.8191 106.599C32.242 106.599 36.6381 102.203 36.6381 96.7803C36.6381 91.3573 32.242 86.9612 26.8191 86.9612C21.3961 86.9612 17 91.3573 17 96.7803Z" fill="black"/>
<path d="M20.6816 72.2327C20.6816 75.622 23.4292 78.3697 26.8186 78.3697C30.2079 78.3697 32.9556 75.622 32.9556 72.2327C32.9556 68.8433 30.2079 66.0957 26.8186 66.0957C23.4292 66.0957 20.6816 68.8433 20.6816 72.2327Z" fill="black"/>
<path d="M20.6816 23.137C20.6816 26.5264 23.4292 29.274 26.8186 29.274C30.2079 29.274 32.9556 26.5264 32.9556 23.137C32.9556 19.7476 30.2079 17 26.8186 17C23.4292 17 20.6816 19.7476 20.6816 23.137Z" fill="black"/>
<path d="M54.6816 81.3149C54.6816 86.7377 59.0778 91.1339 64.5007 91.1339C69.9236 91.1339 74.3198 86.7377 74.3198 81.3149C74.3198 75.892 69.9236 71.4959 64.5007 71.4959C59.0778 71.4959 54.6816 75.892 54.6816 81.3149Z" fill="black"/>
<path d="M58.3632 105.863C58.3632 109.252 61.1108 112 64.5002 112C67.8896 112 70.6372 109.252 70.6372 105.863C70.6372 102.474 67.8896 99.726 64.5002 99.726C61.1108 99.726 58.3632 102.474 58.3632 105.863Z" fill="black"/>
<path d="M58.3632 56.7673C58.3632 60.1567 61.1108 62.9043 64.5002 62.9043C67.8896 62.9043 70.6372 60.1567 70.6372 56.7673C70.6372 53.378 67.8896 50.6303 64.5002 50.6303C61.1108 50.6303 58.3632 53.378 58.3632 56.7673Z" fill="black"/>
<path d="M58.3632 32.2195C58.3632 35.6089 61.1108 38.3565 64.5002 38.3565C67.8896 38.3565 70.6372 35.6089 70.6372 32.2195C70.6372 28.8301 67.8896 26.0825 64.5002 26.0825C61.1108 26.0825 58.3632 28.8301 58.3632 32.2195Z" fill="black"/>
<path d="M92.3617 47.6853C92.3617 53.1082 96.758 57.5043 102.181 57.5043C107.604 57.5043 112 53.1082 112 47.6853C112 42.2624 107.604 37.8663 102.181 37.8663C96.758 37.8663 92.3617 42.2624 92.3617 47.6853Z" fill="black"/>
<path d="M96.0448 23.137C96.0448 26.5264 98.7928 29.274 102.182 29.274C105.571 29.274 108.319 26.5264 108.319 23.137C108.319 19.7476 105.571 17 102.182 17C98.7928 17 96.0448 19.7476 96.0448 23.137Z" fill="black"/>
<path d="M96.0448 72.2327C96.0448 75.622 98.7928 78.3697 102.182 78.3697C105.571 78.3697 108.319 75.622 108.319 72.2327C108.319 68.8433 105.571 66.0957 102.182 66.0957C98.7928 66.0957 96.0448 68.8433 96.0448 72.2327Z" fill="black"/>
<path d="M96.0448 96.7805C96.0448 100.17 98.7928 102.917 102.182 102.917C105.571 102.917 108.319 100.17 108.319 96.7805C108.319 93.3911 105.571 90.6435 102.182 90.6435C98.7928 90.6435 96.0448 93.3911 96.0448 96.7805Z" fill="black"/>
</svg>
